<svg width="24" height="20" viewBox="0 0 24 20" fill="none" xmlns="http://www.w3.org/2000/svg">
<path d="M0.720044 20H23.28C23.688 20 24 19.68 24 19.261V16.085C23.9982 15.9256 23.9461 15.7709 23.8514 15.6427C23.7566 15.5146 23.6239 15.4195 23.472 15.371L22.8 15.174C22.68 15.149 22.608 15.026 22.608 14.903V11.647C22.608 7.559 20.328 3.792 16.776 1.97V1.748C16.776 0.788 16.008 0 15.072 0H8.92804C7.99204 0 7.22404 0.788 7.22404 1.748V1.97C3.67204 3.817 1.39204 7.56 1.39204 11.647V14.903C1.39217 14.9624 1.37373 15.0204 1.33931 15.0688C1.30488 15.1172 1.25619 15.1536 1.20004 15.173L0.528043 15.371C0.374293 15.4163 0.239529 15.5105 0.144229 15.6394C0.0489294 15.7683 -0.00169662 15.9247 4.33983e-05 16.085V19.261C4.33983e-05 19.68 0.336044 20 0.720044 20ZM1.44004 16.651L1.58404 16.601C1.94154 16.4888 2.25457 16.2667 2.47861 15.9663C2.70266 15.666 2.82633 15.3027 2.83204 14.928V11.672C2.83204 8.397 4.53604 5.368 7.22404 3.694V7.067C7.22404 7.486 7.53604 7.806 7.94404 7.806C8.35204 7.806 8.66404 7.486 8.66404 7.067V1.772C8.66404 1.625 8.78404 1.502 8.92804 1.502H15.072C15.1426 1.50357 15.2098 1.53271 15.2591 1.58317C15.3084 1.63364 15.3361 1.70142 15.336 1.772V2.462C15.336 2.512 15.336 2.659 15.36 2.807V7.067C15.36 7.486 15.672 7.806 16.08 7.806C16.488 7.806 16.8 7.486 16.8 7.067V5.614C19.2 6.968 19.728 8.397 19.728 11.647V14.903C19.728 15.125 19.776 15.322 19.848 15.519H7.94404C7.53604 15.519 7.22404 15.839 7.22404 16.257C7.22404 16.675 7.53604 16.996 7.94404 16.996H21.12V18.523H1.44004V16.651Z" fill="#63522B"/>
</svg>
