<svg width="24" height="24" viewBox="0 0 24 24" fill="none" xmlns="http://www.w3.org/2000/svg">
<path d="M12 0C10.83 0 9.784 0.78 9.084 2.01L6.428 6.66L8.045 7.62L10.67 3C11.143 2.167 11.62 1.92 11.998 1.92C12.378 1.92 12.854 2.167 13.326 3L16.213 8.07L14.741 9L19.36 11.88V6.12L17.8 7.08L14.914 2.01C14.215 0.78 13.17 0 12 0ZM6.399 8.61L1.78 11.49L3.195 12.36L0.625004 16.89C-0.0709957 18.116 -0.225996 19.474 0.365004 20.52C0.957004 21.566 2.155 22.08 3.541 22.08H9.228V20.16H3.541C2.585 20.16 2.131 19.845 1.953 19.53C1.777 19.215 1.741 18.683 2.213 17.85L4.753 13.35L6.399 14.37V8.61ZM21.122 13.02L19.562 14.01L21.786 17.85C22.262 18.686 22.222 19.215 22.046 19.53C21.869 19.845 21.414 20.16 20.458 20.16H15.695V18.24L11.075 21.12L15.695 24V22.08H20.458C21.844 22.08 23.042 21.566 23.633 20.52C24.225 19.474 24.073 18.12 23.373 16.89V16.86L21.122 13.02Z" fill="#63522B"/>
</svg>
